<?xml version="1.0" standalone="no"?>
<!DOCTYPE svg PUBLIC "-//W3C//DTD SVG 20010904//EN"
 "http://www.w3.org/TR/2001/REC-SVG-20010904/DTD/svg10.dtd">
<svg version="1.0" xmlns="http://www.w3.org/2000/svg"
 width="1024.000000pt" height="1024.000000pt" viewBox="0 0 1024.000000 1024.000000"
 preserveAspectRatio="xMidYMid meet">

<g transform="translate(0.000000,1024.000000) scale(0.100000,-0.100000)"
fill="#000000" stroke="none">
<path d="M5062 7604 c-761 -128 -1292 -791 -1259 -1573 3 -75 13 -174 22 -221
21 -106 75 -273 119 -365 27 -57 35 -66 41 -50 32 92 84 204 118 257 22 34 97
120 167 190 l127 126 6 149 c12 291 98 503 282 688 196 198 401 276 689 262
215 -10 395 -83 559 -225 27 -23 53 -42 59 -42 19 0 221 164 322 262 l100 98
-44 46 c-138 142 -347 270 -555 340 -204 68 -539 94 -753 58z"/>
<path d="M6140 6520 c-9 -6 -10 -10 -3 -10 6 0 15 5 18 10 8 12 4 12 -15 0z"/>
<path d="M5995 6460 c-3 -6 1 -7 9 -4 18 7 21 14 7 14 -6 0 -13 -4 -16 -10z"/>
<path d="M5720 6364 c-33 -13 -33 -14 -5 -8 17 3 34 10 40 15 11 11 8 11 -35
-7z"/>
<path d="M5468 6283 c7 -3 16 -2 19 1 4 3 -2 6 -13 5 -11 0 -14 -3 -6 -6z"/>
<path d="M5095 6180 c-13 -5 -14 -9 -5 -9 8 0 24 4 35 9 13 5 14 9 5 9 -8 0
-24 -4 -35 -9z"/>
<path d="M4830 6090 c-8 -5 -10 -10 -5 -10 6 0 17 5 25 10 8 5 11 10 5 10 -5
0 -17 -5 -25 -10z"/>
<path d="M4750 6060 c-8 -5 -10 -10 -5 -10 6 0 17 5 25 10 8 5 11 10 5 10 -5
0 -17 -5 -25 -10z"/>
<path d="M5230 5890 c-8 -5 -10 -10 -5 -10 6 0 17 5 25 10 8 5 11 10 5 10 -5
0 -17 -5 -25 -10z"/>
<path d="M4489 5517 c-83 -69 -131 -127 -166 -203 -24 -50 -27 -71 -27 -144 1
-130 38 -205 146 -296 113 -96 392 -211 603 -250 136 -25 412 -26 543 -1 202
38 408 124 566 235 86 60 256 217 256 236 0 7 -13 19 -29 29 -59 35 -214 160
-305 247 l-94 91 -57 -53 c-122 -113 -212 -167 -366 -220 -90 -31 -100 -32
-254 -33 -170 0 -222 9 -347 59 -153 62 -304 193 -393 341 -9 14 -19 9 -76
-38z"/>
<path d="M4110 5540 c-6 -11 -8 -20 -6 -20 3 0 10 9 16 20 6 11 8 20 6 20 -3
0 -10 -9 -16 -20z"/>
<path d="M1503 3772 c-90 -32 -151 -90 -195 -188 -18 -39 -22 -67 -22 -139 0
-79 3 -98 27 -147 38 -78 121 -153 195 -175 70 -21 181 -21 241 1 53 20 130
75 131 95 0 7 -16 29 -35 47 l-35 33 -49 -30 c-64 -40 -118 -52 -177 -39 -84
19 -135 67 -160 149 -41 136 43 278 170 289 78 6 119 -4 170 -42 l44 -34 41
42 41 42 -32 31 c-53 51 -121 76 -218 80 -64 3 -98 -1 -137 -15z"/>
<path d="M2189 3767 c-97 -41 -153 -99 -189 -195 -23 -61 -28 -172 -11 -230
70 -236 387 -316 570 -144 73 69 105 144 104 247 -1 143 -67 257 -181 311 -46
22 -74 28 -147 31 -77 3 -98 0 -146 -20z m228 -116 c52 -24 98 -86 112 -150
34 -159 -86 -297 -240 -276 -60 8 -104 37 -143 93 -25 35 -31 55 -34 113 -6
102 31 179 106 219 49 26 143 26 199 1z"/>
<path d="M3713 3776 c-98 -31 -176 -106 -215 -208 -16 -42 -19 -70 -16 -138 3
-73 9 -94 38 -148 40 -75 94 -125 164 -151 81 -30 153 -35 227 -17 69 18 169
79 169 104 0 8 -16 30 -36 49 -34 32 -38 33 -58 18 -61 -44 -102 -59 -161 -59
-116 0 -200 78 -212 199 -10 98 49 204 130 234 70 27 175 6 228 -45 l27 -26
41 37 c23 21 41 43 41 50 0 22 -75 74 -136 95 -66 23 -168 25 -231 6z"/>
<path d="M5699 3777 c-58 -22 -96 -54 -118 -100 -23 -48 -28 -125 -10 -160 32
-63 73 -86 212 -122 101 -26 134 -45 143 -80 23 -94 -146 -124 -260 -46 l-44
29 -36 -37 c-20 -20 -36 -42 -36 -48 0 -22 75 -74 130 -90 66 -19 170 -21 228
-4 24 7 63 30 87 52 97 90 79 241 -34 299 -21 10 -75 28 -121 40 -46 12 -96
28 -111 35 -56 29 -41 101 25 123 51 16 129 1 182 -35 l38 -25 18 24 c46 57
51 67 38 83 -7 8 -37 27 -68 42 -44 22 -72 28 -141 30 -55 2 -99 -2 -122 -10z"/>
<path d="M8550 3774 c-107 -39 -177 -114 -212 -228 -59 -195 52 -387 252 -432
158 -36 321 39 390 181 22 44 25 64 25 155 0 94 -3 110 -27 155 -34 65 -100
128 -163 156 -66 30 -200 36 -265 13z m238 -137 c116 -77 125 -276 16 -366
-145 -119 -348 -14 -348 179 0 94 39 162 119 205 49 26 161 17 213 -18z"/>
<path d="M2792 3449 l3 -330 62 -4 63 -3 2 223 3 222 155 -214 c85 -118 162
-218 170 -221 8 -4 34 -7 58 -7 l42 0 3 333 2 332 -62 0 -63 0 0 -210 c0 -115
-3 -210 -7 -210 -5 1 -30 33 -57 73 -27 40 -95 134 -150 209 l-101 137 -63 1
-62 0 2 -331z"/>
<path d="M4200 3546 c0 -247 5 -283 50 -347 51 -71 176 -110 287 -89 86 17
149 60 183 125 24 48 25 54 28 297 l3 248 -60 0 -59 0 -4 -229 c-3 -213 -4
-232 -24 -257 -36 -49 -66 -65 -123 -66 -58 0 -88 16 -125 66 -20 25 -21 43
-24 257 l-3 229 -65 0 -64 0 0 -234z"/>
<path d="M4902 3448 l3 -333 65 0 65 0 1 80 c0 44 1 97 2 118 l2 38 67 -3 67
-3 66 -115 67 -115 72 -3 c51 -2 71 1 71 9 0 7 -31 63 -70 125 -38 61 -70 116
-69 120 0 5 19 23 41 39 56 41 78 86 78 161 0 91 -29 141 -105 179 -59 30 -63
30 -243 33 l-183 4 3 -334z m261 212 c73 0 80 -2 108 -29 49 -49 35 -128 -28
-160 -12 -6 -64 -11 -117 -11 l-94 0 0 98 c1 53 3 101 6 105 2 5 14 6 26 3 11
-3 56 -6 99 -6z"/>
<path d="M6397 3773 c-4 -6 -97 -236 -264 -650 -6 -16 122 -16 135 0 5 7 20
40 33 75 l24 62 144 -2 144 -3 26 -70 27 -70 68 -3 c68 -3 68 -3 62 21 -3 14
-63 165 -132 336 l-127 311 -68 0 c-37 0 -70 -3 -72 -7z m126 -278 l45 -120
-95 -3 c-53 -1 -97 -1 -99 0 -1 2 18 61 43 131 26 70 50 124 54 120 3 -4 27
-62 52 -128z"/>
<path d="M6910 3447 l0 -334 65 -2 65 -2 2 222 3 221 59 -83 c33 -46 105 -146
159 -221 l100 -138 53 0 54 0 0 335 0 335 -60 0 -60 0 0 -217 c-1 -208 -1
-217 -18 -196 -9 12 -80 110 -157 217 l-140 196 -62 0 -63 0 0 -333z"/>
<path d="M7630 3445 l0 -338 163 6 c108 3 179 10 214 21 70 22 142 81 178 147
28 51 30 60 30 164 0 101 -2 114 -27 162 -35 66 -79 108 -148 141 -52 25 -65
27 -232 30 l-178 4 0 -337z m341 201 c74 -31 119 -108 119 -203 0 -97 -51
-171 -139 -201 -19 -7 -69 -12 -112 -12 l-79 0 0 215 0 215 89 0 c54 0 102 -6
122 -14z"/>
</g>
</svg>
